<svg width="65" height="60" viewBox="0 0 65 60" fill="none" xmlns="http://www.w3.org/2000/svg">
<path d="M50.7812 31.875L10.1562 31.875C9.61753 31.875 9.10087 31.6775 8.71994 31.3258C8.339 30.9742 8.125 30.4973 8.125 30C8.125 29.5027 8.339 29.0258 8.71994 28.6742C9.10087 28.3225 9.61753 28.125 10.1562 28.125L50.7812 28.125C51.32 28.125 51.8366 28.3225 52.2176 28.6742C52.5985 29.0258 52.8125 29.5027 52.8125 30C52.8125 30.4973 52.5985 30.9742 52.2176 31.3258C51.8366 31.6775 51.32 31.875 50.7812 31.875Z" fill="black"/>
<path d="M49.9402 30L33.0928 14.4525C32.7114 14.1004 32.4972 13.6229 32.4972 13.125C32.4972 12.6271 32.7114 12.1496 33.0928 11.7975C33.4743 11.4454 33.9916 11.2477 34.531 11.2477C35.0704 11.2477 35.5877 11.4454 35.9691 11.7975L54.2505 28.6725C54.4397 28.8467 54.5898 29.0536 54.6922 29.2814C54.7946 29.5092 54.8473 29.7534 54.8473 30C54.8473 30.2467 54.7946 30.4909 54.6922 30.7187C54.5898 30.9465 54.4397 31.1534 54.2505 31.3275L35.9691 48.2026C35.5877 48.5546 35.0704 48.7524 34.531 48.7524C33.9916 48.7524 33.4743 48.5546 33.0928 48.2026C32.7114 47.8505 32.4972 47.373 32.4972 46.8751C32.4972 46.3772 32.7114 45.8996 33.0928 45.5476L49.9402 30Z" fill="black"/>
</svg>
