<svg width="125" height="116" viewBox="0 0 125 116" fill="none" xmlns="http://www.w3.org/2000/svg">
<path d="M116.115 41.8579C117.676 37.4499 113.826 32.6286 109.875 32.4528C109.119 25.5798 100.365 23.9214 97.4609 26.3012C95.7871 23.5117 88.8945 21.1192 84.6367 28.3203L74.0332 46.2568C72.3945 32.5162 64.1797 35.5685 64.1797 35.5685C56.0176 30.5352 49.7734 38.1604 50.7773 46.11L40.2617 28.3203C37.0859 22.8393 29.9102 22.687 27.4375 26.3012C24.0332 23.3595 14.3828 24.4071 15.0215 32.4528C10.8984 32.0685 6.68164 36.5907 8.7832 41.8579C5.58789 42.3454 1.93945 47.018 5.16211 52.722C5.27929 52.9268 14.2109 67.4395 16.6953 72.3749C16.9805 72.944 17.2715 73.5549 17.5801 74.1983C19.6953 78.6244 22.5918 84.689 29.0469 89.3635C31.8164 91.3735 35.3144 92.4375 39.1523 92.4375C45.3555 92.4375 51.7363 89.7423 56.6602 85.0443C58.8832 82.9159 60.7142 80.4629 62.0801 77.7834C66.7871 87.3226 77.0762 92.4212 85.5938 92.4212C89.543 92.4212 93.0918 91.3627 95.8555 89.3617C102.311 84.6854 105.205 78.619 107.322 74.1892C107.61 73.5821 107.903 72.9773 108.201 72.3749C110.684 67.4395 119.617 52.9268 119.703 52.7782C122.986 47.1649 119.908 42.3835 116.115 41.8579ZM39.1523 88.8505C36.2852 88.8505 31.4961 87.8954 29.3398 86.333C22.7461 81.557 21.6406 75.5305 19.4883 71.253C16.9082 66.1236 7.44726 51.5203 7.44726 51.5203C5.74414 48.5496 7.16797 43.8516 10.4531 44.524L22.1406 61.9893L25.2051 62.6925C25.2051 62.6925 14.6133 47.424 11.2168 41.5642C9.51758 38.6352 12.7676 34.5934 16.2031 35.6029L30.1387 57.478L33.2031 58.1849L17.7852 34.0297C15.1094 28.7607 23.4023 25.3641 26.0156 29.7884L39.0898 52.7292L41.543 53.2965L29.2988 29.8645C28.5508 26.7978 34.5273 24.998 37.4082 29.5256L50.3574 53.6192C43.5352 56.8436 36.0059 66.7834 43.3594 76.1902C38.7129 66.3629 46.1934 58.2356 51.0801 55.2613C54.1934 53.3672 53.0176 50.4074 52.8965 46.5649C52.7051 40.5257 54.5977 36.9242 58.2871 36.9242C61.3691 36.9242 62.0566 42.1587 60.1934 51.7994C58.9375 58.2936 60.0801 64.1208 58.4102 72.355C56.2402 83.0342 47.2988 88.8505 39.1523 88.8505ZM116.318 51.0074C113.268 55.9011 107.086 65.6705 104.672 70.8669C101.887 76.8572 95.7441 88.8125 84.6777 88.8125C76.2148 88.8125 64.3047 82.7442 63.1504 72.7646C62.5273 67.3815 62.8398 59.3557 64.1641 51.127C64.7617 47.3987 66.3105 41.3159 64.6699 38.4576C68.8262 36.888 71.2773 40.6924 71.9863 51.7632C72.041 52.6096 72.0762 54.2844 73.8145 55.2631C78.8086 58.0797 86.1816 66.3647 81.5351 76.192C88.8906 66.7852 80.9551 55.2287 74.1348 52.0024L87.291 29.6017C90.3008 24.7352 96.3027 26.8322 95.8477 29.5745L82.5449 53.0247L85.3457 51.687C85.3457 51.687 94.707 35.1661 98.1152 29.5437C100.486 25.6378 108.543 29.5727 105.762 34.2508C102.059 40.4804 92.0938 58.3534 92.0938 58.3534L94.7539 57.4762L108.361 35.0102C110.996 34.8707 114.16 38.3634 112.193 41.5352C108.949 46.7625 99.6895 62.6907 99.6895 62.6907L102.432 61.7229L114.838 43.4202C117.455 43.7283 118.473 47.5473 116.318 51.0074Z" fill="white"/>
</svg>
